<svg width="24" height="24" viewBox="0 0 24 24" fill="none" xmlns="http://www.w3.org/2000/svg">
<path d="M6.61523 3.5H13.8291C13.9749 3.50005 14.1174 3.52875 14.2598 3.58984C14.4091 3.65391 14.5286 3.73569 14.625 3.83203L18.168 7.375C18.2643 7.4714 18.3461 7.59092 18.4102 7.74023C18.4713 7.88264 18.5 8.02508 18.5 8.1709V19.3848C18.4999 19.7206 18.3925 19.9747 18.1836 20.1836C17.9747 20.3925 17.7206 20.4999 17.3848 20.5H6.61523C6.27943 20.4999 6.02527 20.3925 5.81641 20.1836C5.60754 19.9747 5.50006 19.7206 5.5 19.3848V4.61523C5.50006 4.27943 5.60754 4.02527 5.81641 3.81641C6.02527 3.60754 6.27943 3.50006 6.61523 3.5Z" fill="#E3E8F4" stroke="#D7DDE6"/>
<path d="M14.2298 7.77025C14.0766 7.61708 14 7.42442 14 7.19225V4L18 8H14.8077C14.5756 8 14.3829 7.92342 14.2298 7.77025Z" fill="white" fill-opacity="0.16"/>
</svg>
