<svg width="24" height="24" viewBox="0 0 24 24" fill="none" xmlns="http://www.w3.org/2000/svg">
<path d="M12 15.1125C11.8506 15.1125 11.7077 15.0867 11.5712 15.035C11.4346 14.9833 11.3102 14.9016 11.1982 14.7897L6.60423 10.1957C6.39306 9.98442 6.28748 9.71917 6.28748 9.4C6.28748 9.08083 6.39306 8.81558 6.60423 8.60425C6.81556 8.39308 7.08081 8.2875 7.39998 8.2875C7.71914 8.2875 7.98439 8.39308 8.19573 8.60425L12 12.4087L15.8042 8.60425C16.0156 8.39308 16.2808 8.2875 16.6 8.2875C16.9191 8.2875 17.1844 8.39308 17.3957 8.60425C17.6069 8.81558 17.7125 9.08083 17.7125 9.4C17.7125 9.71917 17.6069 9.98442 17.3957 10.1957L12.8017 14.7897C12.6897 14.9016 12.5654 14.9833 12.4287 15.035C12.2922 15.0867 12.1493 15.1125 12 15.1125Z" fill="#242424"/>
</svg>
