<svg width="24" height="24" viewBox="0 0 24 24" fill="none" xmlns="http://www.w3.org/2000/svg">
<path d="M12 21C10.891 21 9.85158 20.7913 8.88175 20.374C7.91192 19.9567 7.0645 19.3855 6.3395 18.6605C5.6145 17.9355 5.04333 17.0881 4.626 16.1183C4.20867 15.1484 4 14.109 4 13C4 12.8577 4.04775 12.7388 4.14325 12.6433C4.23875 12.5478 4.35767 12.5 4.5 12.5C4.64233 12.5 4.76125 12.5478 4.85675 12.6433C4.95225 12.7388 5 12.8577 5 13C5 14.95 5.67917 16.6042 7.0375 17.9625C8.39583 19.3208 10.05 20 12 20C13.95 20 15.6042 19.3208 16.9625 17.9625C18.3208 16.6042 19 14.95 19 13C19 11.05 18.3208 9.39583 16.9625 8.0375C15.6042 6.67917 13.95 6 12 6H11.6192L12.8923 7.273C12.9897 7.3705 13.0408 7.48525 13.0452 7.61725C13.0498 7.74942 12.9987 7.87058 12.8923 7.98075C12.7821 8.09108 12.6632 8.14717 12.5355 8.149C12.408 8.151 12.2891 8.09683 12.1788 7.9865L10.2578 6.04625C10.0961 5.88458 10.0152 5.69608 10.0152 5.48075C10.0152 5.26542 10.0961 5.077 10.2578 4.9155L12.2172 2.975C12.3147 2.8775 12.4305 2.8265 12.5645 2.822C12.6985 2.81767 12.8206 2.87058 12.9307 2.98075C13.0372 3.09108 13.0914 3.209 13.0932 3.3345C13.0952 3.46017 13.0411 3.57817 12.9307 3.6885L11.6192 5H12C13.109 5 14.1484 5.20867 15.1182 5.626C16.0881 6.04333 16.9355 6.6145 17.6605 7.3395C18.3855 8.0645 18.9567 8.91192 19.374 9.88175C19.7913 10.8516 20 11.891 20 13C20 14.109 19.7913 15.1484 19.374 16.1183C18.9567 17.0881 18.3855 17.9355 17.6605 18.6605C16.9355 19.3855 16.0881 19.9567 15.1182 20.374C14.1484 20.7913 13.109 21 12 21Z" fill="#242424"/>
</svg>
